<mxfile host="app.diagrams.net" modified="2020-08-04T12:39:27.394Z" agent="5.0 (Windows NT 10.0; Win64; x64) AppleWebKit/537.36 (KHTML, like Gecko) Chrome/84.0.4147.105 Safari/537.36" etag="zQJd7WjTjF-8aqDrHc-d" version="13.5.8" type="github">
  <diagram id="I-wDz_oMiWfW9ADXY6nU" name="第 1 页">
    <mxGraphModel dx="484" dy="792" grid="1" gridSize="10" guides="1" tooltips="1" connect="1" arrows="1" fold="1" page="1" pageScale="1" pageWidth="827" pageHeight="1169" math="0" shadow="0">
      <root>
        <mxCell id="0" />
        <mxCell id="1" parent="0" />
        <mxCell id="yys9ipMwNBANRbfiFS7F-1" value="&lt;font style=&quot;font-size: 15px;&quot;&gt;&lt;span style=&quot;font-size: 15px;&quot;&gt;3&lt;/span&gt;&lt;/font&gt;" style="rounded=1;html=1;shadow=1;labelBackgroundColor=none;sketch=0;fontFamily=Comic Sans MS;fontSize=15;strokeWidth=1;glass=0;labelBorderColor=none;fillColor=#b0e3e6;strokeColor=#b1e3e6;fontStyle=1;fontColor=#808080;verticalAlign=middle;aspect=fixed;" vertex="1" parent="1">
          <mxGeometry x="100" y="460" width="38" height="38" as="geometry" />
        </mxCell>
        <mxCell id="yys9ipMwNBANRbfiFS7F-2" value="1" style="rounded=1;html=1;shadow=1;labelBackgroundColor=none;sketch=0;fillColor=#b0e3e6;fontFamily=Comic Sans MS;fontSize=15;strokeWidth=1;glass=0;strokeColor=#b1e3e6;labelBorderColor=none;fontStyle=1;fontColor=#808080;verticalAlign=middle;aspect=fixed;" vertex="1" parent="1">
          <mxGeometry x="190" y="460" width="38" height="38" as="geometry" />
        </mxCell>
        <mxCell id="yys9ipMwNBANRbfiFS7F-3" value="6" style="rounded=1;html=1;shadow=1;labelBackgroundColor=none;sketch=0;fillColor=#b0e3e6;fontFamily=Comic Sans MS;fontSize=15;strokeWidth=1;glass=0;strokeColor=#b1e3e6;labelBorderColor=none;fontStyle=1;fontColor=#808080;verticalAlign=middle;" vertex="1" parent="1">
          <mxGeometry x="360" y="460" width="38" height="38" as="geometry" />
        </mxCell>
        <mxCell id="yys9ipMwNBANRbfiFS7F-4" value="2" style="rounded=1;html=1;shadow=1;labelBackgroundColor=none;sketch=0;fillColor=#b0e3e6;fontFamily=Comic Sans MS;fontSize=15;strokeWidth=1;glass=0;strokeColor=#b1e3e6;labelBorderColor=none;fontStyle=1;fontColor=#808080;verticalAlign=middle;aspect=fixed;" vertex="1" parent="1">
          <mxGeometry x="450" y="460" width="38" height="38" as="geometry" />
        </mxCell>
        <mxCell id="yys9ipMwNBANRbfiFS7F-14" value="" style="shape=flexArrow;endArrow=classic;html=1;strokeColor=none;shadow=1;fillColor=#FFCE9F;" edge="1" parent="1">
          <mxGeometry width="50" height="50" relative="1" as="geometry">
            <mxPoint x="300" y="525" as="sourcePoint" />
            <mxPoint x="300" y="585" as="targetPoint" />
          </mxGeometry>
        </mxCell>
        <mxCell id="yys9ipMwNBANRbfiFS7F-15" value="&lt;font style=&quot;font-size: 15px;&quot;&gt;&lt;span style=&quot;font-size: 15px;&quot;&gt;3&lt;/span&gt;&lt;/font&gt;" style="rounded=1;html=1;shadow=1;labelBackgroundColor=none;sketch=0;fontFamily=Comic Sans MS;fontSize=15;strokeWidth=1;glass=0;labelBorderColor=none;fillColor=#b0e3e6;strokeColor=#b1e3e6;fontStyle=1;fontColor=#808080;verticalAlign=middle;aspect=fixed;" vertex="1" parent="1">
          <mxGeometry x="168" y="600" width="38" height="38" as="geometry" />
        </mxCell>
        <mxCell id="yys9ipMwNBANRbfiFS7F-16" value="1" style="rounded=1;html=1;shadow=1;labelBackgroundColor=none;sketch=0;fillColor=#b0e3e6;fontFamily=Comic Sans MS;fontSize=15;strokeWidth=1;glass=0;strokeColor=#b1e3e6;labelBorderColor=none;fontStyle=1;fontColor=#808080;verticalAlign=middle;aspect=fixed;" vertex="1" parent="1">
          <mxGeometry x="130" y="600" width="38" height="38" as="geometry" />
        </mxCell>
        <mxCell id="yys9ipMwNBANRbfiFS7F-17" value="6" style="rounded=1;html=1;shadow=1;labelBackgroundColor=none;sketch=0;fillColor=#b0e3e6;fontFamily=Comic Sans MS;fontSize=15;strokeWidth=1;glass=0;strokeColor=#b1e3e6;labelBorderColor=none;fontStyle=1;fontColor=#808080;verticalAlign=middle;" vertex="1" parent="1">
          <mxGeometry x="428" y="600" width="38" height="38" as="geometry" />
        </mxCell>
        <mxCell id="yys9ipMwNBANRbfiFS7F-18" value="2" style="rounded=1;html=1;shadow=1;labelBackgroundColor=none;sketch=0;fillColor=#b0e3e6;fontFamily=Comic Sans MS;fontSize=15;strokeWidth=1;glass=0;strokeColor=#b1e3e6;labelBorderColor=none;fontStyle=1;fontColor=#808080;verticalAlign=middle;aspect=fixed;" vertex="1" parent="1">
          <mxGeometry x="390" y="600" width="38" height="38" as="geometry" />
        </mxCell>
        <mxCell id="yys9ipMwNBANRbfiFS7F-19" value="" style="shape=flexArrow;endArrow=classic;html=1;strokeColor=none;shadow=1;fillColor=#FFCE9F;" edge="1" parent="1">
          <mxGeometry width="50" height="50" relative="1" as="geometry">
            <mxPoint x="300" y="660" as="sourcePoint" />
            <mxPoint x="300" y="720" as="targetPoint" />
          </mxGeometry>
        </mxCell>
        <mxCell id="yys9ipMwNBANRbfiFS7F-20" value="&lt;font style=&quot;font-size: 15px;&quot;&gt;&lt;span style=&quot;font-size: 15px;&quot;&gt;3&lt;/span&gt;&lt;/font&gt;" style="rounded=1;html=1;shadow=1;labelBackgroundColor=none;sketch=0;fontFamily=Comic Sans MS;fontSize=15;strokeWidth=1;glass=0;labelBorderColor=none;fillColor=#b0e3e6;strokeColor=#b1e3e6;fontStyle=1;fontColor=#808080;verticalAlign=middle;aspect=fixed;" vertex="1" parent="1">
          <mxGeometry x="304" y="760" width="38" height="38" as="geometry" />
        </mxCell>
        <mxCell id="yys9ipMwNBANRbfiFS7F-21" value="1" style="rounded=1;html=1;shadow=1;labelBackgroundColor=none;sketch=0;fillColor=#b0e3e6;fontFamily=Comic Sans MS;fontSize=15;strokeWidth=1;glass=0;strokeColor=#b1e3e6;labelBorderColor=none;fontStyle=1;fontColor=#808080;verticalAlign=middle;aspect=fixed;" vertex="1" parent="1">
          <mxGeometry x="228" y="760" width="38" height="38" as="geometry" />
        </mxCell>
        <mxCell id="yys9ipMwNBANRbfiFS7F-22" value="6" style="rounded=1;html=1;shadow=1;labelBackgroundColor=none;sketch=0;fillColor=#b0e3e6;fontFamily=Comic Sans MS;fontSize=15;strokeWidth=1;glass=0;strokeColor=#b1e3e6;labelBorderColor=none;fontStyle=1;fontColor=#808080;verticalAlign=middle;" vertex="1" parent="1">
          <mxGeometry x="342" y="760" width="38" height="38" as="geometry" />
        </mxCell>
        <mxCell id="yys9ipMwNBANRbfiFS7F-23" value="2" style="rounded=1;html=1;shadow=1;labelBackgroundColor=none;sketch=0;fillColor=#b0e3e6;fontFamily=Comic Sans MS;fontSize=15;strokeWidth=1;glass=0;strokeColor=#b1e3e6;labelBorderColor=none;fontStyle=1;fontColor=#808080;verticalAlign=middle;aspect=fixed;" vertex="1" parent="1">
          <mxGeometry x="266" y="760" width="38" height="38" as="geometry" />
        </mxCell>
      </root>
    </mxGraphModel>
  </diagram>
</mxfile>
